<?xml version="1.0" standalone="no"?>
<!DOCTYPE svg PUBLIC "-//W3C//DTD SVG 20010904//EN"
 "http://www.w3.org/TR/2001/REC-SVG-20010904/DTD/svg10.dtd">
<svg version="1.0" xmlns="http://www.w3.org/2000/svg"
 width="311.000000pt" height="311.000000pt" viewBox="0 0 311.000000 311.000000"
 preserveAspectRatio="xMidYMid meet">
<metadata>
Created by potrace 1.14, written by Peter Selinger 2001-2017
</metadata>
<g transform="translate(0.000000,311.000000) scale(0.100000,-0.100000)"
fill="#000000" stroke="none">
<path d="M0 1962 l0 -1147 27 -20 c83 -61 135 -115 163 -166 51 -96 62 -141
67 -276 6 -144 -1 -181 -57 -295 l-27 -58 1267 0 c1147 0 1268 2 1274 16 3 9
6 26 6 39 0 13 4 34 9 47 5 13 17 49 27 80 9 31 25 65 35 74 21 19 20 20 38
-61 6 -27 21 -83 33 -122 l22 -73 113 0 113 0 0 1555 0 1555 -1555 0 -1555 0
0 -1148z m1640 1069 c110 -19 150 -49 150 -111 0 -34 -6 -43 -53 -84 -47 -40
-53 -49 -49 -77 4 -25 8 -30 25 -25 11 2 29 -1 41 -8 17 -11 96 -26 154 -29 6
0 12 -4 12 -9 0 -5 8 -7 19 -3 11 3 34 -3 55 -16 51 -30 56 -17 13 30 -61 68
-62 158 -2 218 28 28 40 33 80 33 80 0 163 -49 252 -147 84 -91 101 -116 126
-183 35 -94 10 -176 -56 -182 -17 -2 -30 -7 -27 -13 3 -5 13 -9 23 -8 9 2 17
-2 17 -7 0 -6 -4 -10 -10 -10 -5 0 -10 -4 -10 -10 0 -5 7 -10 14 -10 16 0 66
-60 66 -79 0 -7 5 -9 10 -6 6 4 10 -6 10 -24 0 -16 5 -33 10 -36 6 -4 10 11
10 37 0 55 21 85 66 94 123 23 291 -186 330 -412 18 -106 14 -139 -27 -181
-35 -39 -64 -41 -128 -13 -24 11 -45 19 -47 17 -2 -1 1 -34 7 -72 5 -39 9 -81
7 -95 -1 -14 3 -33 9 -44 10 -18 11 -18 24 1 27 39 107 47 142 15 84 -76 67
-403 -28 -523 -67 -85 -153 -52 -179 69 -11 47 -26 49 -26 3 0 -26 -6 -46 -19
-58 -11 -11 -22 -39 -26 -70 -4 -30 -13 -54 -21 -57 -8 -3 -14 -12 -14 -21 0
-17 16 -20 25 -5 13 22 67 10 95 -20 53 -56 50 -171 -6 -298 -42 -95 -176
-202 -253 -202 -16 0 -39 9 -52 19 -20 16 -24 28 -24 80 0 34 6 66 13 73 6 6
12 21 12 32 0 20 0 20 -15 0 -10 -13 -14 -14 -15 -5 0 11 -3 11 -15 1 -8 -7
-15 -28 -15 -47 0 -30 -2 -34 -15 -23 -12 10 -16 9 -21 -4 -3 -9 -15 -16 -26
-16 -15 0 -18 -4 -12 -22 3 -13 13 -31 21 -40 19 -22 19 -108 -1 -145 -23 -45
-66 -80 -139 -113 -224 -101 -341 -92 -400 33 -12 25 -14 42 -7 66 8 30 7 32
-13 29 -12 -2 -24 -12 -27 -24 -4 -16 -12 -21 -38 -20 -34 1 -40 -5 -19 -23 7
-6 14 -32 16 -59 4 -88 -57 -135 -174 -135 -100 1 -145 14 -300 89 -81 39
-104 57 -139 109 -40 58 -33 115 19 167 l26 27 -38 3 c-26 2 -38 8 -38 18 0 8
-18 24 -41 35 -22 11 -51 30 -65 43 -13 13 -32 21 -41 18 -13 -3 -20 3 -24 21
-6 21 -11 24 -33 18 -33 -8 -36 -12 -23 -28 6 -7 14 -46 17 -87 9 -99 -2 -115
-77 -114 -64 1 -181 56 -222 105 -57 68 -85 157 -86 276 0 66 3 75 29 105 26
30 28 38 23 90 -5 68 -25 81 -71 49 -35 -26 -54 -26 -89 -4 -95 61 -159 226
-141 364 19 142 59 219 120 234 20 5 33 0 58 -24 18 -17 36 -31 40 -31 19 0
32 50 35 135 4 84 2 95 -13 95 -9 0 -22 -5 -27 -10 -6 -6 -32 -11 -58 -12 -42
-2 -51 1 -76 28 -76 86 -30 346 81 454 57 55 94 73 133 66 50 -10 85 -76 87
-165 1 -25 3 -38 6 -28 2 9 10 17 18 17 7 0 15 7 19 15 3 8 1 15 -4 15 -5 0
-6 8 -2 18 16 39 38 62 59 62 13 0 23 6 23 15 0 23 22 65 35 65 13 0 60 79 51
87 -3 3 -12 0 -21 -7 -26 -22 -127 -3 -164 30 -47 44 -41 84 27 185 92 135
169 184 318 202 46 5 82 -12 107 -51 27 -41 -21 -196 -61 -196 -8 0 -12 -3 -9
-7 4 -3 -1 -12 -10 -18 -15 -11 -15 -15 -4 -29 15 -18 41 -22 41 -6 0 6 -7 10
-16 10 -8 0 -12 5 -9 10 3 6 15 10 26 10 10 0 24 9 31 20 7 11 23 20 36 20 13
0 36 7 51 14 15 8 37 13 48 10 14 -4 25 1 35 14 8 12 31 23 53 27 50 8 95 25
95 35 0 5 20 8 45 8 29 -1 52 5 64 16 17 16 19 16 24 -6 8 -28 13 -22 20 25 5
33 3 39 -23 52 -16 8 -54 15 -85 15 -62 0 -122 25 -143 60 -29 47 33 124 134
166 42 18 180 44 204 38 8 -1 40 -7 70 -13z"/>
<path d="M1805 1998 c-27 -31 -27 -34 -20 -123 3 -49 15 -128 25 -175 10 -47
24 -121 30 -164 15 -100 32 -128 74 -124 44 4 59 42 64 159 7 169 -29 346 -88
430 -27 38 -52 37 -85 -3z"/>
<path d="M1133 1884 c-23 -36 -32 -139 -22 -274 16 -211 96 -363 159 -300 17
17 20 34 20 123 0 129 -41 380 -73 446 -18 38 -60 40 -84 5z"/>
<path d="M410 1503 c0 -5 5 -15 10 -23 8 -12 10 -11 10 8 0 12 -4 22 -10 22
-5 0 -10 -3 -10 -7z"/>
<path d="M2711 1494 c0 -11 3 -14 6 -6 3 7 2 16 -1 19 -3 4 -6 -2 -5 -13z"/>
<path d="M2093 1252 c-6 -4 -19 -27 -29 -52 -53 -136 -134 -207 -298 -261 -48
-15 -87 -19 -200 -19 -186 0 -251 22 -355 119 -30 28 -58 51 -61 51 -17 0 -32
-31 -26 -55 7 -29 50 -71 85 -83 169 -60 181 -62 344 -62 143 0 163 2 233 26
109 38 154 66 243 152 60 58 83 88 92 119 16 57 4 86 -28 65z"/>
<path d="M503 905 c0 -16 24 -28 38 -19 10 6 -14 34 -29 34 -5 0 -9 -7 -9 -15z"/>
<path d="M2545 870 c-3 -5 -1 -10 4 -10 6 0 11 5 11 10 0 6 -2 10 -4 10 -3 0
-8 -4 -11 -10z"/>
</g>
</svg>
